<svg width="21" height="24" viewBox="0 0 21 24" fill="none" xmlns="http://www.w3.org/2000/svg">
<path d="M10.4852 11.203L16.8602 4.82797C17.3008 4.38734 18.0133 4.38734 18.4492 4.82797L19.5086 5.88734C19.9492 6.32797 19.9492 7.04047 19.5086 7.4764L14.9945 11.9998L19.5133 16.5186C19.9539 16.9592 19.9539 17.6717 19.5133 18.1077L18.4539 19.1717C18.0133 19.6123 17.3008 19.6123 16.8648 19.1717L10.4898 12.7967C10.0445 12.3561 10.0445 11.6436 10.4852 11.203ZM1.48516 12.7967L7.86016 19.1717C8.30078 19.6123 9.01328 19.6123 9.44922 19.1717L10.5086 18.1123C10.9492 17.6717 10.9492 16.9592 10.5086 16.5233L5.99453 11.9998L10.5133 7.48109C10.9539 7.04047 10.9539 6.32797 10.5133 5.89203L9.45391 4.82797C9.01328 4.38734 8.30078 4.38734 7.86485 4.82797L1.48985 11.203C1.04453 11.6436 1.04453 12.3561 1.48516 12.7967Z" fill="black"/>
</svg>
