<svg width="160" height="142" viewBox="0 0 160 142" fill="none" xmlns="http://www.w3.org/2000/svg">
<rect width="160" height="142" rx="10" fill="#F4F4F4"/>
<g clip-path="url(#clip0_128_315)">
<path d="M80.4999 73.6875C88.4188 73.6875 94.8436 67.2627 94.8436 59.3438C94.8436 51.4248 88.4188 45 80.4999 45C72.5809 45 66.1561 51.4248 66.1561 59.3438C66.1561 67.2627 72.5809 73.6875 80.4999 73.6875ZM93.2499 76.875H87.7614C85.5501 77.891 83.0897 78.4688 80.4999 78.4688C77.91 78.4688 75.4596 77.891 73.2384 76.875H67.7499C60.7075 76.875 54.9999 82.5826 54.9999 89.625V91.2188C54.9999 93.8584 57.1415 96 59.7811 96H101.219C103.858 96 106 93.8584 106 91.2188V89.625C106 82.5826 100.292 76.875 93.2499 76.875Z" fill="black"/>
</g>
<defs>
<clipPath id="clip0_128_315">
<rect width="51" height="51" fill="white" transform="translate(55 45)"/>
</clipPath>
</defs>
</svg>
