<svg width="36" height="34" viewBox="0 0 36 34" fill="none" xmlns="http://www.w3.org/2000/svg">
<path d="M8.07497 9.76748C8.36423 7.4148 9.47982 5.24138 11.2228 3.63485C12.9657 2.02833 15.2226 1.09317 17.591 0.996174C19.9594 0.899179 22.2853 1.64665 24.1538 3.10528C26.0222 4.56391 27.3118 6.63883 27.7925 8.95998C25.4448 8.33298 22.9728 8.33935 20.6284 8.97843C18.284 9.61752 16.1508 10.8665 14.446 12.5982C12.7413 14.3298 11.5259 16.4823 10.9236 18.8365C10.3214 21.1907 10.3538 23.6624 11.0175 26H8.62497C6.51474 26.0045 4.48554 25.1878 2.96676 23.7227C1.44799 22.2576 0.55879 20.2592 0.487331 18.1501C0.415871 16.0411 1.16776 13.987 2.58388 12.4225C4.00001 10.858 5.96927 9.90583 8.07497 9.76748ZM35.5 22.25C35.5 23.7273 35.209 25.1903 34.6436 26.5552C34.0783 27.9201 33.2496 29.1603 32.2049 30.2049C31.1603 31.2496 29.9201 32.0783 28.5552 32.6436C27.1902 33.209 25.7273 33.5 24.25 33.5C22.7726 33.5 21.3097 33.209 19.9448 32.6436C18.5799 32.0783 17.3397 31.2496 16.295 30.2049C15.2504 29.1603 14.4217 27.9201 13.8563 26.5552C13.291 25.1903 13 23.7273 13 22.25C13 19.2663 14.1852 16.4048 16.295 14.295C18.4048 12.1852 21.2663 11 24.25 11C27.2337 11 30.0951 12.1852 32.2049 14.295C34.3147 16.4048 35.5 19.2663 35.5 22.25ZM30.135 17.615C30.0189 17.4986 29.8809 17.4062 29.7291 17.3432C29.5772 17.2802 29.4144 17.2477 29.25 17.2477C29.0856 17.2477 28.9228 17.2802 28.7709 17.3432C28.619 17.4062 28.4811 17.4986 28.365 17.615L21.75 24.2325L20.135 22.615C20.0188 22.4988 19.8808 22.4066 19.7289 22.3437C19.5771 22.2808 19.4143 22.2484 19.25 22.2484C19.0856 22.2484 18.9229 22.2808 18.771 22.3437C18.6192 22.4066 18.4812 22.4988 18.365 22.615C18.2488 22.7312 18.1566 22.8692 18.0937 23.021C18.0308 23.1729 17.9984 23.3356 17.9984 23.5C17.9984 23.6643 18.0308 23.8271 18.0937 23.9789C18.1566 24.1308 18.2488 24.2688 18.365 24.385L20.865 26.885C20.9811 27.0014 21.119 27.0937 21.2709 27.1568C21.4228 27.2198 21.5856 27.2522 21.75 27.2522C21.9144 27.2522 22.0772 27.2198 22.2291 27.1568C22.3809 27.0937 22.5189 27.0014 22.635 26.885L30.135 19.385C30.2514 19.2689 30.3437 19.1309 30.4068 18.9791C30.4698 18.8272 30.5022 18.6644 30.5022 18.5C30.5022 18.3356 30.4698 18.1728 30.4068 18.0209C30.3437 17.869 30.2514 17.7311 30.135 17.615Z" fill="#14AE5C"/>
</svg>
