<svg width="25" height="17" viewBox="0 0 25 17" fill="none" xmlns="http://www.w3.org/2000/svg">
<path d="M23.7499 0.625061H1.24988C0.559644 0.625061 -0.00012207 1.21281 -0.00012207 1.93756V15.0626C-0.00012207 15.7873 0.559644 16.3751 1.24988 16.3751H23.7499C24.4401 16.3751 24.9999 15.7873 24.9999 15.0626V1.93756C24.9999 1.21281 24.4401 0.625061 23.7499 0.625061ZM1.87488 14.4063V11.7813C3.25574 11.7813 4.37488 12.9564 4.37488 14.4063H1.87488ZM1.87488 5.21881V2.59381H4.37488C4.37488 4.04371 3.25574 5.21881 1.87488 5.21881ZM12.4999 12.4376C10.7737 12.4376 9.37488 10.6743 9.37488 8.50006C9.37488 6.32541 10.7741 4.56256 12.4999 4.56256C14.2257 4.56256 15.6249 6.32541 15.6249 8.50006C15.6249 10.6751 14.2253 12.4376 12.4999 12.4376ZM23.1249 14.4063H20.6249C20.6249 12.9564 21.744 11.7813 23.1249 11.7813V14.4063ZM23.1249 5.21881C21.744 5.21881 20.6249 4.04371 20.6249 2.59381H23.1249V5.21881Z" fill="black"/>
</svg>
