<svg width="40" height="40" viewBox="0 0 40 40" fill="none" xmlns="http://www.w3.org/2000/svg">
<path d="M3.33325 20C3.33325 29.205 10.7949 36.6666 19.9999 36.6666C29.2049 36.6666 36.6666 29.205 36.6666 20C36.6666 10.795 29.2049 3.33331 19.9999 3.33331C10.7949 3.33331 3.33325 10.795 3.33325 20ZM33.3333 20C33.3333 23.5362 31.9285 26.9276 29.428 29.4281C26.9275 31.9286 23.5361 33.3333 19.9999 33.3333C16.4637 33.3333 13.0723 31.9286 10.5718 29.4281C8.07134 26.9276 6.66659 23.5362 6.66659 20C6.66659 16.4638 8.07134 13.0724 10.5718 10.5719C13.0723 8.0714 16.4637 6.66665 19.9999 6.66665C23.5361 6.66665 26.9275 8.0714 29.428 10.5719C31.9285 13.0724 33.3333 16.4638 33.3333 20ZM29.9999 20C30.0002 21.978 29.4138 23.9116 28.315 25.5563C27.2162 27.201 25.6543 28.4829 23.8269 29.2399C21.9995 29.9969 19.9887 30.1949 18.0487 29.809C16.1087 29.423 14.3268 28.4704 12.9283 27.0716L19.9999 20V9.99998C22.6521 9.99998 25.1956 11.0535 27.071 12.9289C28.9464 14.8043 29.9999 17.3478 29.9999 20Z" fill="#FFCD29"/>
</svg>
