<svg width="28" height="22" viewBox="0 0 28 22" fill="none" xmlns="http://www.w3.org/2000/svg">
<g clip-path="url(#clip0_44_14)">
<path d="M27.1819 10.1964L24.6225 7.68275C24.0975 7.16713 23.3844 6.87924 22.6406 6.87924H21V2.74994C21 1.98939 20.3744 1.37494 19.6 1.37494H1.4C0.625625 1.37494 0 1.98939 0 2.74994V17.1874C0 19.0867 1.56625 20.6249 3.5 20.6249C4.65062 20.6249 5.66125 20.0706 6.3 19.2328C6.93875 20.0749 7.94937 20.6249 9.1 20.6249C11.0337 20.6249 12.6 19.0867 12.6 17.1874C12.6 16.9511 12.5737 16.7234 12.53 16.4999H19.67C19.6219 16.7234 19.6 16.9511 19.6 17.1874C19.6 19.0867 21.1663 20.6249 23.1 20.6249C25.0338 20.6249 26.6 19.0867 26.6 17.1874C26.6 16.9511 26.5738 16.7234 26.53 16.4999H27.3C27.685 16.4999 28 16.1906 28 15.8124V12.1386C28 11.4081 27.7069 10.712 27.1819 10.1964ZM3.5 18.5624C2.73 18.5624 2.1 17.9437 2.1 17.1874C2.1 16.4312 2.73 15.8124 3.5 15.8124C4.27 15.8124 4.9 16.4312 4.9 17.1874C4.9 17.9437 4.27 18.5624 3.5 18.5624ZM9.1 18.5624C8.33 18.5624 7.7 17.9437 7.7 17.1874C7.7 16.4312 8.33 15.8124 9.1 15.8124C9.87 15.8124 10.5 16.4312 10.5 17.1874C10.5 17.9437 9.87 18.5624 9.1 18.5624ZM21 8.93744H22.6406C22.8287 8.93744 23.0037 9.01049 23.135 9.13939L25.0294 10.9999H21V8.93744ZM23.1 18.5624C22.33 18.5624 21.7 17.9437 21.7 17.1874C21.7 16.4312 22.33 15.8124 23.1 15.8124C23.87 15.8124 24.5 16.4312 24.5 17.1874C24.5 17.9437 23.87 18.5624 23.1 18.5624Z" fill="black"/>
</g>
<defs>
<clipPath id="clip0_44_14">
<rect width="28" height="22" fill="white"/>
</clipPath>
</defs>
</svg>
