<svg width="34" height="36" viewBox="0 0 34 36" fill="none" xmlns="http://www.w3.org/2000/svg">
<path d="M2.86427 28.1607L15.7514 35.4643C16.21 35.7262 16.6602 35.8572 17.1021 35.8572C17.544 35.8572 17.9997 35.7262 18.4693 35.4643L31.3407 28.1607C32.094 27.7241 32.6643 27.23 33.0514 26.6786C33.439 26.1276 33.6328 25.2681 33.6328 24.1V11.1307C33.6328 10.2793 33.4719 9.57526 33.15 9.0186C32.8276 8.46145 32.3228 7.98098 31.6357 7.57717L20.0407 0.994312C19.0588 0.426693 18.0821 0.142883 17.1107 0.142883C16.1393 0.142883 15.1566 0.426693 14.1628 0.994312L2.5857 7.57717C1.88713 7.98145 1.37665 8.46193 1.05427 9.0186C0.732364 9.57526 0.571411 10.2793 0.571411 11.1307V24.1C0.571411 25.2681 0.76784 26.1276 1.1607 26.6786C1.55355 27.2296 2.12141 27.7236 2.86427 28.1607ZM4.33784 25.9993C3.85689 25.7265 3.52379 25.4398 3.33855 25.1393C3.15284 24.8393 3.05998 24.4655 3.05998 24.0179V11.6543L15.8171 18.9415V32.5329L4.33784 25.9993ZM29.8828 25.9993L18.3878 32.5329V18.9415L31.1428 11.6543V24.0179C31.1428 24.4655 31.05 24.8393 30.8643 25.1393C30.6786 25.4393 30.3516 25.7262 29.8836 26M17.1114 16.65L4.46855 9.49288L9.52855 6.59503L22.17 13.7836L17.1114 16.65ZM24.8071 12.2943L12.1157 5.12074L15.26 3.33574C16.5047 2.62622 17.7383 2.62622 18.9607 3.33574L29.7521 9.49288L24.8071 12.2943Z" fill="#9747FF"/>
</svg>
