<svg width="51" height="51" viewBox="0 0 51 51" fill="none" xmlns="http://www.w3.org/2000/svg">
<g clip-path="url(#clip0_128_317)">
<path d="M25.4999 28.6875C33.4188 28.6875 39.8436 22.2627 39.8436 14.3438C39.8436 6.4248 33.4188 0 25.4999 0C17.5809 0 11.1561 6.4248 11.1561 14.3438C11.1561 22.2627 17.5809 28.6875 25.4999 28.6875ZM38.2499 31.875H32.7614C30.5501 32.891 28.0897 33.4688 25.4999 33.4688C22.91 33.4688 20.4596 32.891 18.2384 31.875H12.7499C5.7075 31.875 -0.00012207 37.5826 -0.00012207 44.625V46.2188C-0.00012207 48.8584 2.14148 51 4.78113 51H46.2186C48.8583 51 50.9999 48.8584 50.9999 46.2188V44.625C50.9999 37.5826 45.2923 31.875 38.2499 31.875Z" fill="white"/>
</g>
<defs>
<clipPath id="clip0_128_317">
<rect width="51" height="51" fill="white"/>
</clipPath>
</defs>
</svg>
