<svg width="25" height="20" viewBox="0 0 25 20" fill="none" xmlns="http://www.w3.org/2000/svg">
<g clip-path="url(#clip0_44_9)">
<path d="M19.6875 13.7502H5.32812C5.15625 13.7502 5.01562 13.8908 5.01562 14.0627L5.01172 15.9377C5.01172 16.1096 5.15234 16.2502 5.32422 16.2502H19.6875C19.8594 16.2502 20 16.1096 20 15.9377V14.0627C20 13.8908 19.8594 13.7502 19.6875 13.7502ZM19.6875 17.5002H5.31641C5.14453 17.5002 5.00391 17.6408 5.00391 17.8127L5 19.6877C5 19.8596 5.14063 20.0002 5.3125 20.0002H19.6875C19.8594 20.0002 20 19.8596 20 19.6877V17.8127C20 17.6408 19.8594 17.5002 19.6875 17.5002ZM19.6875 10.0002H5.33594C5.16406 10.0002 5.02344 10.1408 5.02344 10.3127L5.01953 12.1877C5.01953 12.3596 5.16016 12.5002 5.33203 12.5002H19.6875C19.8594 12.5002 20 12.3596 20 12.1877V10.3127C20 10.1408 19.8594 10.0002 19.6875 10.0002ZM23.8477 4.57053L13.2188 0.144747C12.9903 0.0499735 12.7454 0.00119019 12.498 0.00119019C12.2507 0.00119019 12.0058 0.0499735 11.7773 0.144747L1.15234 4.57053C0.457031 4.8635 0 5.54319 0 6.301V19.6877C0 19.8596 0.140625 20.0002 0.3125 20.0002H3.4375C3.60938 20.0002 3.75 19.8596 3.75 19.6877V10.0002C3.75 9.31272 4.32031 8.75022 5.02344 8.75022H19.9766C20.6797 8.75022 21.25 9.31272 21.25 10.0002V19.6877C21.25 19.8596 21.3906 20.0002 21.5625 20.0002H24.6875C24.8594 20.0002 25 19.8596 25 19.6877V6.301C25 5.54319 24.543 4.8635 23.8477 4.57053Z" fill="black"/>
</g>
<defs>
<clipPath id="clip0_44_9">
<rect width="25" height="20" fill="white"/>
</clipPath>
</defs>
</svg>
